# xmcd
#
# Track frame offsets:
#	150
#	23372
#	42587
#	67012
#	87592
#	104575
#
# Disc length: 1700 seconds
#
# Revision: 2
# Processed by: cddbd v1.5.1PL2 Copyright (c) Steve Scherf et al.
# Submitted via: dBpowerAMP V4.0
#
DISCID=4d06a206
DTITLE=Method Man - I'll Be There For You
DYEAR=1900
DGENRE=Hip-Hop
TTITLE0=I'll Be There For You (feat. Mary J Blige) (Puff Daddy Mix) 
TTITLE1=I'll Be There For You (Soul Inside Edit)
TTITLE2=I'll Be There For You (Soul Inside Instrumental)
TTITLE3=I'll Be There For You (Keep It Tight Mix)
TTITLE4=I'll Be There For You (Razor Sharp Mix)
TTITLE5=I'll Be There For You (Puff Daddy Instrumental)
EXTD=Grim Santo
EXTT0=
EXTT1=
EXTT2=
EXTT3=
EXTT4=
EXTT5=
PLAYORDER=
